<?xml version="1.0" encoding="utf-8"?>
<!--0 40 200 200 Generator: Adobe Illustrator 24.2.1, SVG Export Plug-In . SVG Version: 6.00 Build 0) 0 50 200 100  -->
<svg version="1.1" id="Layer_1" xmlns="http://www.w3.org/2000/svg" xmlns:xlink="http://www.w3.org/1999/xlink" x="0px" y="0px"
	 viewBox="0 50 200 100" style="enable-background:new 0 50 200 100;" xml:space="preserve">
<style type="text/css">
	.st0{fill:#D41122;}
	.st1{fill:#12100B;}
</style>
<g>
	<path class="st0" d="M147.32,106.78L147.32,106.78l-14.54-14.54c-0.15-0.15-0.4-0.15-0.55,0c-1.79,1.79-1.79,4.69,0,6.47l3.48,3.48
		c-3.84,0.12-7.65,1.64-10.6,4.59c-6.15,6.15-6.15,16.06,0,22.21c6.15,6.15,16.06,6.15,22.21,0
		C153.47,122.84,153.47,112.92,147.32,106.78z M143.52,125.19c-4.17,4.17-10.73,4.45-14.87,0.31c-4.17-4.17-3.89-10.73,0.28-14.9
		c4.17-4.17,10.73-4.45,14.9-0.28C147.98,114.46,147.69,121.02,143.52,125.19z"/>
	<path class="st0" d="M132.55,66.54c-6.26-6.84-16.95-6.84-23.21,0c-5.43,5.93-5.43,15.24,0,21.17c0.13,0.14,0.28,0.27,0.41,0.41
		l-0.01,0.01l14.54,14.54c0.15,0.15,0.4,0.15,0.55,0c1.79-1.79,1.79-4.69,0-6.47l-3.38-3.38c4.07-0.13,8.09-1.82,11.1-5.11
		C137.98,81.78,137.98,72.47,132.55,66.54z M128.25,84.43c-4.17,4.17-10.73,4.45-14.87,0.32l0,0c-4.42-4.42-3.84-11.52,1.08-15.62
		c4.12-3.44,10.31-3.36,14.1,0.43C132.71,73.7,132.43,80.26,128.25,84.43z"/>
	<g>
		<path class="st1" d="M36.57,143.07h1.49l-0.1,0.79h-2.48l0.55-4.42h0.99L36.57,143.07z"/>
		<path class="st1" d="M45.42,140.2h-1.64l-0.13,1.07h1.25L44.8,142h-1.25l-0.13,1.1h1.65l-0.1,0.76h-2.64l0.55-4.42h2.64
			L45.42,140.2z"/>
		<path class="st1" d="M52.95,139.44l-0.1,0.78h-1.12l-0.45,3.64h-0.98l0.44-3.64h-1.13l0.1-0.78H52.95z"/>
		<path class="st1" d="M57.91,139.18c0.05,0.1,0.08,0.2,0.11,0.3s0.03,0.2,0.03,0.3c0,0.24-0.07,0.47-0.2,0.69
			c-0.13,0.22-0.33,0.43-0.59,0.61l-0.26-0.16c-0.02-0.01-0.03-0.02-0.04-0.04c-0.01-0.02-0.02-0.04-0.02-0.06
			c0-0.03,0.01-0.05,0.02-0.07c0.01-0.02,0.04-0.05,0.06-0.08c0.02-0.02,0.04-0.05,0.07-0.09c0.03-0.04,0.06-0.09,0.08-0.14
			c0.03-0.05,0.05-0.12,0.07-0.19s0.03-0.14,0.03-0.22c0-0.06-0.01-0.13-0.02-0.2c-0.02-0.07-0.04-0.14-0.07-0.21
			c-0.01-0.02-0.01-0.04-0.01-0.06c0-0.04,0.01-0.07,0.04-0.1c0.03-0.03,0.07-0.05,0.12-0.07L57.91,139.18z"/>
		<path class="st1" d="M64.72,140.32c-0.03,0.05-0.07,0.08-0.1,0.11c-0.04,0.02-0.08,0.03-0.13,0.03c-0.05,0-0.09-0.02-0.14-0.05
			c-0.05-0.03-0.1-0.06-0.16-0.1c-0.06-0.04-0.12-0.07-0.2-0.1c-0.08-0.03-0.16-0.05-0.26-0.05c-0.09,0-0.17,0.01-0.24,0.04
			c-0.07,0.03-0.13,0.06-0.17,0.11c-0.05,0.05-0.08,0.1-0.1,0.16c-0.02,0.06-0.03,0.13-0.03,0.21c0,0.08,0.02,0.15,0.07,0.2
			c0.05,0.05,0.11,0.1,0.18,0.14c0.08,0.04,0.16,0.08,0.26,0.11c0.1,0.03,0.19,0.07,0.29,0.11c0.1,0.04,0.2,0.09,0.29,0.14
			c0.1,0.05,0.18,0.12,0.26,0.2c0.08,0.08,0.14,0.17,0.18,0.29c0.05,0.11,0.07,0.25,0.07,0.4c0,0.22-0.04,0.43-0.12,0.63
			c-0.08,0.2-0.19,0.37-0.33,0.51s-0.32,0.26-0.52,0.35c-0.21,0.09-0.44,0.13-0.69,0.13c-0.13,0-0.26-0.01-0.38-0.04
			c-0.13-0.03-0.25-0.07-0.37-0.12c-0.12-0.05-0.23-0.11-0.33-0.18c-0.1-0.07-0.19-0.15-0.26-0.24l0.35-0.46
			c0.03-0.03,0.06-0.06,0.1-0.09c0.04-0.02,0.09-0.03,0.13-0.03c0.06,0,0.11,0.02,0.17,0.06c0.05,0.04,0.11,0.08,0.18,0.13
			c0.06,0.05,0.14,0.09,0.23,0.13c0.09,0.04,0.19,0.06,0.32,0.06c0.18,0,0.33-0.05,0.43-0.15c0.1-0.1,0.15-0.25,0.15-0.44
			c0-0.09-0.02-0.17-0.07-0.22c-0.05-0.06-0.11-0.11-0.18-0.15c-0.07-0.04-0.16-0.08-0.25-0.11c-0.1-0.03-0.19-0.07-0.29-0.1
			c-0.1-0.04-0.2-0.08-0.29-0.13c-0.1-0.05-0.18-0.11-0.25-0.19c-0.07-0.08-0.13-0.18-0.18-0.29c-0.05-0.12-0.07-0.26-0.07-0.43
			c0-0.2,0.04-0.39,0.11-0.57c0.07-0.18,0.18-0.34,0.32-0.48c0.14-0.14,0.3-0.25,0.5-0.33c0.2-0.08,0.42-0.12,0.66-0.12
			c0.13,0,0.25,0.01,0.37,0.04c0.12,0.03,0.23,0.06,0.33,0.11c0.1,0.05,0.2,0.1,0.28,0.17c0.08,0.06,0.16,0.13,0.22,0.21
			L64.72,140.32z"/>
		<path class="st1" d="M75.18,143.86h-1l0.54-4.42h1L75.18,143.86z"/>
		<path class="st1" d="M81.02,139.44c0.03,0,0.06,0.01,0.08,0.02c0.02,0.01,0.04,0.03,0.06,0.05c0.02,0.02,0.04,0.05,0.05,0.08
			l1.55,2.73c0-0.07,0.01-0.14,0.02-0.2c0.01-0.06,0.02-0.13,0.02-0.18l0.3-2.5h0.87l-0.55,4.42h-0.52c-0.08,0-0.14-0.01-0.19-0.03
			c-0.05-0.02-0.09-0.07-0.13-0.13l-1.55-2.73c0,0.06-0.01,0.11-0.01,0.16c-0.01,0.05-0.01,0.1-0.01,0.15l-0.3,2.58h-0.87l0.55-4.42
			h0.52C80.96,139.44,80.99,139.44,81.02,139.44z"/>
		<path class="st1" d="M89.19,139.44c0.03,0,0.06,0.01,0.08,0.02c0.02,0.01,0.04,0.03,0.06,0.05c0.02,0.02,0.04,0.05,0.05,0.08
			l1.55,2.73c0-0.07,0.01-0.14,0.02-0.2c0.01-0.06,0.02-0.13,0.02-0.18l0.3-2.5h0.87l-0.55,4.42h-0.52c-0.08,0-0.14-0.01-0.19-0.03
			c-0.05-0.02-0.09-0.07-0.13-0.13l-1.55-2.73c0,0.06-0.01,0.11-0.01,0.16c-0.01,0.05-0.01,0.1-0.01,0.15l-0.3,2.58h-0.87l0.55-4.42
			h0.52C89.13,139.44,89.16,139.44,89.19,139.44z"/>
		<path class="st1" d="M100.51,141.37c0,0.24-0.03,0.47-0.08,0.69c-0.06,0.22-0.13,0.42-0.24,0.61c-0.1,0.19-0.23,0.36-0.37,0.51
			c-0.14,0.15-0.31,0.28-0.49,0.39c-0.18,0.11-0.38,0.19-0.59,0.25c-0.21,0.06-0.43,0.09-0.66,0.09c-0.29,0-0.55-0.05-0.78-0.15
			c-0.23-0.1-0.43-0.24-0.59-0.42c-0.16-0.18-0.29-0.39-0.37-0.63c-0.09-0.24-0.13-0.5-0.13-0.78c0-0.24,0.03-0.47,0.08-0.69
			c0.06-0.22,0.13-0.42,0.24-0.61c0.1-0.19,0.23-0.36,0.37-0.51c0.15-0.15,0.31-0.28,0.49-0.39c0.18-0.11,0.38-0.19,0.59-0.25
			c0.21-0.06,0.43-0.09,0.67-0.09c0.29,0,0.55,0.05,0.78,0.15c0.23,0.1,0.43,0.24,0.59,0.42c0.16,0.18,0.28,0.39,0.37,0.63
			C100.47,140.83,100.51,141.09,100.51,141.37z M99.5,141.39c0-0.18-0.02-0.35-0.07-0.5c-0.04-0.15-0.11-0.28-0.19-0.38
			s-0.19-0.19-0.31-0.25c-0.12-0.06-0.26-0.09-0.41-0.09c-0.2,0-0.38,0.04-0.54,0.13c-0.16,0.08-0.3,0.2-0.41,0.35
			c-0.11,0.15-0.2,0.33-0.26,0.55c-0.06,0.21-0.09,0.45-0.09,0.71c0,0.18,0.02,0.35,0.06,0.49c0.04,0.15,0.1,0.27,0.19,0.38
			c0.08,0.11,0.18,0.19,0.31,0.24c0.12,0.06,0.26,0.09,0.42,0.09c0.2,0,0.38-0.04,0.54-0.12c0.16-0.08,0.3-0.2,0.41-0.35
			c0.11-0.15,0.2-0.33,0.26-0.55C99.47,141.89,99.5,141.65,99.5,141.39z"/>
		<path class="st1" d="M104.62,139.44h0.8c0.09,0,0.15,0.02,0.2,0.06c0.05,0.04,0.08,0.09,0.09,0.16l0.46,2.44
			c0.02,0.1,0.04,0.21,0.07,0.34c0.03,0.12,0.05,0.25,0.06,0.38c0.04-0.13,0.09-0.25,0.15-0.37c0.05-0.12,0.1-0.24,0.15-0.34
			l1.03-2.44c0.01-0.03,0.03-0.05,0.05-0.08c0.02-0.03,0.05-0.05,0.08-0.07c0.03-0.02,0.07-0.04,0.1-0.05
			c0.04-0.01,0.08-0.02,0.12-0.02h0.8l-2.17,4.42h-0.9L104.62,139.44z"/>
		<path class="st1" d="M115.79,143.86h-0.77c-0.09,0-0.15-0.02-0.2-0.06c-0.05-0.04-0.08-0.09-0.09-0.16l-0.14-0.8h-1.5l-0.33,0.8
			c-0.02,0.06-0.07,0.11-0.13,0.15c-0.06,0.04-0.14,0.07-0.22,0.07h-0.78l2.11-4.42h1.01L115.79,143.86z M113.36,142.18h1.11
			l-0.22-1.26c-0.02-0.11-0.04-0.21-0.06-0.32c-0.02-0.11-0.04-0.21-0.05-0.3c-0.02,0.05-0.04,0.1-0.06,0.17
			c-0.03,0.06-0.05,0.12-0.08,0.18c-0.03,0.06-0.05,0.11-0.07,0.16c-0.02,0.05-0.04,0.09-0.05,0.11L113.36,142.18z"/>
		<path class="st1" d="M123.03,139.44l-0.1,0.78h-1.12l-0.45,3.64h-0.98l0.44-3.64h-1.13l0.1-0.78H123.03z"/>
		<path class="st1" d="M129.88,140.2h-1.64l-0.13,1.07h1.25l-0.1,0.73h-1.25l-0.13,1.1h1.65l-0.1,0.76h-2.64l0.55-4.42h2.64
			L129.88,140.2z"/>
		<path class="st1" d="M142.54,139.44l-0.1,0.78h-1.12l-0.45,3.64h-0.98l0.44-3.64h-1.13l0.1-0.78H142.54z"/>
		<path class="st1" d="M150.45,141.37c0,0.24-0.03,0.47-0.08,0.69c-0.06,0.22-0.13,0.42-0.24,0.61c-0.1,0.19-0.23,0.36-0.37,0.51
			c-0.14,0.15-0.31,0.28-0.49,0.39c-0.18,0.11-0.38,0.19-0.59,0.25c-0.21,0.06-0.43,0.09-0.66,0.09c-0.29,0-0.55-0.05-0.78-0.15
			c-0.23-0.1-0.43-0.24-0.59-0.42c-0.16-0.18-0.29-0.39-0.37-0.63c-0.09-0.24-0.13-0.5-0.13-0.78c0-0.24,0.03-0.47,0.08-0.69
			c0.06-0.22,0.13-0.42,0.24-0.61c0.1-0.19,0.23-0.36,0.37-0.51c0.15-0.15,0.31-0.28,0.49-0.39c0.18-0.11,0.38-0.19,0.59-0.25
			c0.21-0.06,0.43-0.09,0.67-0.09c0.29,0,0.55,0.05,0.78,0.15c0.23,0.1,0.43,0.24,0.59,0.42c0.16,0.18,0.28,0.39,0.37,0.63
			C150.41,140.83,150.45,141.09,150.45,141.37z M149.43,141.39c0-0.18-0.02-0.35-0.07-0.5c-0.04-0.15-0.11-0.28-0.19-0.38
			c-0.08-0.11-0.19-0.19-0.31-0.25c-0.12-0.06-0.26-0.09-0.41-0.09c-0.2,0-0.38,0.04-0.54,0.13c-0.16,0.08-0.3,0.2-0.41,0.35
			c-0.11,0.15-0.2,0.33-0.26,0.55c-0.06,0.21-0.09,0.45-0.09,0.71c0,0.18,0.02,0.35,0.06,0.49c0.04,0.15,0.1,0.27,0.19,0.38
			c0.08,0.11,0.18,0.19,0.31,0.24c0.12,0.06,0.26,0.09,0.42,0.09c0.2,0,0.38-0.04,0.55-0.12c0.16-0.08,0.3-0.2,0.41-0.35
			c0.11-0.15,0.2-0.33,0.26-0.55C149.4,141.89,149.43,141.65,149.43,141.39z"/>
		<path class="st1" d="M156.54,143.15c0.12,0,0.23-0.01,0.33-0.03c0.1-0.02,0.19-0.05,0.28-0.09l0.09-0.72h-0.38
			c-0.06,0-0.1-0.01-0.13-0.04s-0.05-0.06-0.05-0.11l0.07-0.57h1.48l-0.23,1.85c-0.11,0.08-0.23,0.15-0.35,0.21
			c-0.12,0.06-0.25,0.11-0.38,0.15c-0.13,0.04-0.27,0.07-0.42,0.09c-0.15,0.02-0.3,0.03-0.47,0.03c-0.27,0-0.52-0.05-0.75-0.15
			c-0.23-0.1-0.42-0.24-0.58-0.41c-0.16-0.18-0.29-0.38-0.37-0.63c-0.09-0.24-0.13-0.5-0.13-0.78c0-0.24,0.03-0.48,0.08-0.7
			c0.06-0.22,0.13-0.43,0.24-0.61c0.1-0.19,0.23-0.36,0.37-0.51c0.14-0.15,0.31-0.28,0.48-0.39c0.18-0.11,0.37-0.19,0.57-0.25
			c0.2-0.06,0.42-0.09,0.64-0.09c0.19,0,0.36,0.02,0.51,0.05c0.15,0.03,0.29,0.08,0.41,0.14c0.12,0.06,0.23,0.12,0.33,0.2
			c0.1,0.08,0.18,0.15,0.25,0.24l-0.32,0.4c-0.07,0.09-0.15,0.13-0.25,0.13c-0.05,0-0.11-0.02-0.17-0.05
			c-0.07-0.05-0.14-0.09-0.2-0.12c-0.06-0.04-0.13-0.06-0.19-0.09c-0.06-0.02-0.13-0.04-0.2-0.05c-0.07-0.01-0.15-0.02-0.24-0.02
			c-0.19,0-0.37,0.04-0.53,0.12c-0.16,0.08-0.3,0.2-0.41,0.35s-0.2,0.33-0.27,0.54c-0.06,0.21-0.1,0.44-0.1,0.69
			c0,0.19,0.02,0.37,0.07,0.52c0.05,0.15,0.11,0.29,0.2,0.39c0.09,0.11,0.19,0.19,0.31,0.24
			C156.26,143.12,156.39,143.15,156.54,143.15z"/>
		<path class="st1" d="M165.51,140.2h-1.64l-0.13,1.07H165l-0.1,0.73h-1.25l-0.13,1.1h1.65l-0.1,0.76h-2.64l0.55-4.42h2.64
			L165.51,140.2z"/>
		<path class="st1" d="M173.05,139.44l-0.1,0.78h-1.12l-0.45,3.64h-0.98l0.44-3.64h-1.13l0.1-0.78H173.05z"/>
		<path class="st1" d="M180.41,143.86h-1l0.23-1.88h-1.6l-0.23,1.88h-1l0.55-4.42h1l-0.23,1.87h1.6l0.23-1.87h1L180.41,143.86z"/>
		<path class="st1" d="M188.08,140.2h-1.64l-0.13,1.07h1.25l-0.1,0.73h-1.25l-0.13,1.1h1.65l-0.1,0.76h-2.64l0.55-4.42h2.64
			L188.08,140.2z"/>
		<path class="st1" d="M193.27,142.21l-0.2,1.65h-0.98l0.54-4.42h1.34c0.27,0,0.5,0.03,0.69,0.09c0.19,0.06,0.35,0.14,0.47,0.24
			c0.12,0.1,0.21,0.22,0.27,0.36c0.06,0.14,0.08,0.29,0.08,0.45c0,0.16-0.02,0.32-0.07,0.46c-0.04,0.15-0.11,0.28-0.19,0.4
			c-0.08,0.12-0.18,0.23-0.31,0.33c-0.12,0.09-0.26,0.17-0.41,0.23c0.06,0.03,0.12,0.08,0.17,0.12c0.05,0.05,0.1,0.11,0.13,0.18
			l0.64,1.56h-0.89c-0.08,0-0.15-0.02-0.21-0.05c-0.06-0.03-0.1-0.08-0.12-0.14l-0.48-1.31c-0.02-0.06-0.05-0.1-0.09-0.12
			c-0.04-0.02-0.09-0.03-0.17-0.03H193.27z M193.52,140.18l-0.17,1.35h0.36c0.14,0,0.26-0.02,0.36-0.07c0.1-0.04,0.18-0.1,0.24-0.17
			c0.06-0.07,0.11-0.16,0.13-0.26c0.03-0.1,0.04-0.2,0.04-0.31c0-0.08-0.01-0.16-0.04-0.23c-0.02-0.07-0.06-0.13-0.11-0.17
			c-0.05-0.05-0.12-0.08-0.19-0.11c-0.08-0.03-0.17-0.04-0.27-0.04H193.52z"/>
	</g>
	<path class="st1" d="M25.48,80.44c0,1.54-0.25,2.94-0.76,4.18c-0.51,1.25-1.22,2.3-2.15,3.17c-0.93,0.87-2.06,1.54-3.38,2.01
		c-1.32,0.47-2.8,0.71-4.44,0.71c-2.62,0-4.95-0.42-7-1.25c-2.05-0.83-3.74-1.79-5.06-2.86l3.92-3.92c1.04,0.95,2.21,1.67,3.5,2.17
		c0.79,0.32,1.53,0.52,2.22,0.61c0.69,0.09,1.26,0.14,1.7,0.14c0.82,0,1.57-0.1,2.25-0.31c0.68-0.2,1.27-0.48,1.77-0.83
		c1.07-0.79,1.61-1.83,1.61-3.12c0-0.79-0.28-1.5-0.85-2.13c-0.44-0.5-1.01-0.91-1.7-1.23c-0.57-0.32-1.17-0.57-1.8-0.76
		c-0.63-0.19-1.2-0.36-1.7-0.52c-0.16-0.06-0.3-0.1-0.43-0.12s-0.24-0.05-0.33-0.12c-0.06,0-0.16-0.03-0.28-0.09
		c-0.66-0.19-1.62-0.52-2.86-0.99C8.47,74.72,7.23,74.07,6,73.25c-2.87-1.92-4.3-4.29-4.3-7.09c0-1.86,0.32-3.43,0.97-4.7
		c0.65-1.28,1.49-2.32,2.53-3.12c1.04-0.8,2.2-1.38,3.48-1.73c1.28-0.35,2.53-0.52,3.76-0.52c2.27,0,4.18,0.27,5.72,0.8
		c1.54,0.54,2.77,1.07,3.69,1.61c0.47,0.28,0.87,0.56,1.21,0.83c0.33,0.27,0.62,0.51,0.88,0.73l-4.02,4.07
		c-0.85-0.85-1.72-1.5-2.6-1.94c-1.32-0.63-2.71-0.95-4.16-0.95c-0.63,0-1.26,0.08-1.89,0.24c-0.63,0.16-1.18,0.36-1.65,0.61
		c-1.39,0.85-2.08,1.97-2.08,3.36c0,0.85,0.28,1.58,0.85,2.17c0.41,0.47,0.98,0.9,1.7,1.28c0.6,0.32,1.23,0.57,1.89,0.76
		c0.66,0.19,1.28,0.36,1.84,0.52l0.57,0.14c0.16,0.06,0.46,0.16,0.9,0.28c0.44,0.13,0.96,0.32,1.56,0.57
		c0.6,0.25,1.25,0.55,1.96,0.9c0.71,0.35,1.41,0.76,2.1,1.23C23.95,75.32,25.48,77.69,25.48,80.44z"/>
	<path class="st1" d="M40.8,89.89h-5.2c-1.07,0-2.08-0.21-3.03-0.61c-0.95-0.41-1.77-0.97-2.46-1.68c-0.69-0.71-1.25-1.54-1.65-2.48
		c-0.41-0.95-0.61-1.95-0.61-3.03V61.48l5.67-1.42v9.03h3.31l1.42,5.67h-4.73v7.33c0,0.6,0.21,1.1,0.61,1.51
		c0.41,0.41,0.9,0.61,1.47,0.61h3.78L40.8,89.89z"/>
	<path class="st1" d="M64.63,66.25v23.64h-5.67v-1.8c-0.85,0.73-1.81,1.32-2.88,1.77c-1.07,0.46-2.27,0.69-3.59,0.69
		c-1.54,0-2.95-0.29-4.21-0.87c-1.26-0.58-2.34-1.38-3.24-2.39c-0.9-1.01-1.59-2.19-2.08-3.55c-0.49-1.35-0.73-2.8-0.73-4.35V66.25
		h5.67V79.4c0,1.48,0.55,2.77,1.65,3.88c1.07,1.07,2.36,1.61,3.88,1.61c1.54,0,2.85-0.53,3.92-1.61c1.07-1.07,1.61-2.36,1.61-3.88
		V66.25H64.63z"/>
	<path class="st1" d="M91.9,56.75v33.14h-5.67V78.07c0-1.92-0.66-3.53-1.99-4.82c-1.32-1.32-2.92-1.99-4.77-1.99
		c-1.89,0-3.5,0.66-4.82,1.99c-1.32,1.32-1.99,2.93-1.99,4.82c0,1.86,0.66,3.45,1.99,4.77c0.63,0.66,1.36,1.16,2.2,1.49
		c0.84,0.33,1.71,0.5,2.62,0.5c0.91,0,1.75-0.16,2.51-0.47l2.03,5.06c-1.45,0.72-3.12,1.09-5.01,1.09c-1.73,0-3.33-0.32-4.8-0.97
		c-1.47-0.64-2.73-1.54-3.8-2.67c-1.07-1.13-1.91-2.46-2.51-3.97c-0.6-1.51-0.9-3.12-0.9-4.82c0-1.73,0.3-3.36,0.9-4.87
		c0.6-1.51,1.43-2.84,2.51-3.97c1.07-1.13,2.34-2.02,3.8-2.67c1.47-0.65,3.06-0.97,4.8-0.97c1.51,0,2.87,0.24,4.07,0.71
		c1.2,0.47,2.25,1.07,3.17,1.8V56.75H91.9z"/>
	<path class="st1" d="M96.1,56.8h5.67v5.67H96.1V56.8z M96.1,89.89V66.25h5.67v23.64H96.1z"/>
	<path class="st1" d="M68.49,96.07v33.09h-5.67v-23.45L51.89,122.6l-10.87-16.88v23.45h-5.67V96.07h6.19l10.35,16.07l10.4-16.07
		H68.49z"/>
	<path class="st1" d="M96.05,105.53v23.69h-5.67v-11.82c0-1.89-0.66-3.5-1.99-4.82c-1.32-1.32-2.93-1.99-4.82-1.99
		c-0.91,0-1.79,0.17-2.62,0.52c-0.84,0.35-1.57,0.84-2.2,1.47c-1.32,1.32-1.99,2.93-1.99,4.82c0,1.86,0.66,3.45,1.99,4.77
		c0.63,0.66,1.36,1.16,2.2,1.49c0.83,0.33,1.71,0.5,2.62,0.5c0.95,0,1.8-0.16,2.55-0.47l2.03,5.06c-1.45,0.72-3.14,1.09-5.06,1.09
		c-1.73,0-3.33-0.32-4.8-0.97c-1.47-0.64-2.74-1.54-3.81-2.67c-1.07-1.13-1.91-2.46-2.51-3.97c-0.6-1.51-0.9-3.12-0.9-4.82
		c0-1.73,0.3-3.36,0.9-4.87c0.6-1.51,1.43-2.84,2.51-3.97c1.07-1.13,2.34-2.02,3.81-2.67c1.47-0.65,3.06-0.97,4.8-0.97
		c1.54,0,2.92,0.24,4.11,0.71c1.2,0.47,2.25,1.07,3.17,1.8v-1.89H96.05z"/>
	<path class="st1" d="M108.58,114.56c0.38,0.1,1.01,0.32,1.89,0.66c0.88,0.35,1.79,0.83,2.72,1.44c0.93,0.61,1.74,1.38,2.43,2.29
		c0.69,0.91,1.04,2,1.04,3.26c0,1.1-0.18,2.11-0.54,3.03c-0.36,0.91-0.89,1.72-1.58,2.41c-0.69,0.69-1.54,1.23-2.55,1.61
		c-1.01,0.38-2.14,0.57-3.4,0.57c-1.92,0-3.71-0.35-5.37-1.04c-1.65-0.69-2.99-1.54-4-2.55l3.92-3.92c0.82,0.98,1.69,1.61,2.62,1.89
		c0.93,0.28,1.71,0.43,2.34,0.43c0.98,0,1.7-0.19,2.17-0.57c0.47-0.38,0.71-0.84,0.71-1.37c0-0.38-0.16-0.71-0.47-0.99
		c-0.32-0.28-0.69-0.52-1.11-0.71c-0.43-0.19-0.86-0.34-1.3-0.45c-0.44-0.11-0.8-0.21-1.09-0.31c-0.38-0.13-1.02-0.35-1.91-0.66
		c-0.9-0.32-1.81-0.77-2.74-1.37c-0.93-0.6-1.74-1.36-2.43-2.27c-0.69-0.91-1.04-2.02-1.04-3.31c0-1.32,0.23-2.47,0.69-3.43
		c0.46-0.96,1.06-1.76,1.82-2.39c0.76-0.63,1.62-1.09,2.6-1.39c0.98-0.3,1.99-0.45,3.03-0.45c1.61,0,2.97,0.19,4.09,0.57
		c1.12,0.38,2.04,0.79,2.77,1.23c0.82,0.54,1.51,1.13,2.08,1.8l-3.97,3.97c-0.63-0.82-1.32-1.42-2.08-1.8
		c-0.76-0.38-1.56-0.57-2.41-0.57c-0.66,0-1.32,0.16-1.96,0.47c-0.65,0.32-0.97,0.82-0.97,1.51c0,0.38,0.14,0.7,0.43,0.97
		c0.28,0.27,0.63,0.49,1.04,0.66c0.41,0.17,0.84,0.32,1.3,0.45C107.78,114.35,108.2,114.46,108.58,114.56z"/>
	<path class="st1" d="M167.9,104.91c1.54,0,2.95,0.29,4.21,0.87c1.26,0.58,2.34,1.39,3.24,2.41c0.9,1.02,1.59,2.21,2.08,3.57
		c0.49,1.36,0.73,2.81,0.73,4.35v13.1h-5.67v-13.1c0-1.58-0.55-2.88-1.65-3.92c-1.07-1.07-2.36-1.61-3.88-1.61
		c-1.54,0-2.85,0.54-3.92,1.61c-1.07,1.07-1.61,2.38-1.61,3.92v13.1h-5.67v-23.64h5.67v1.8c0.85-0.72,1.81-1.32,2.88-1.77
		C165.38,105.14,166.58,104.91,167.9,104.91z"/>
	<path class="st1" d="M190.21,114.56c0.38,0.1,1.01,0.32,1.89,0.66c0.88,0.35,1.79,0.83,2.72,1.44c0.93,0.61,1.74,1.38,2.43,2.29
		c0.69,0.91,1.04,2,1.04,3.26c0,1.1-0.18,2.11-0.54,3.03c-0.36,0.91-0.89,1.72-1.58,2.41c-0.69,0.69-1.54,1.23-2.55,1.61
		c-1.01,0.38-2.14,0.57-3.4,0.57c-1.92,0-3.71-0.35-5.37-1.04c-1.65-0.69-2.99-1.54-3.99-2.55l3.92-3.92
		c0.82,0.98,1.69,1.61,2.62,1.89c0.93,0.28,1.71,0.43,2.34,0.43c0.98,0,1.7-0.19,2.17-0.57c0.47-0.38,0.71-0.84,0.71-1.37
		c0-0.38-0.16-0.71-0.47-0.99c-0.32-0.28-0.69-0.52-1.11-0.71c-0.43-0.19-0.86-0.34-1.3-0.45c-0.44-0.11-0.8-0.21-1.09-0.31
		c-0.38-0.13-1.02-0.35-1.91-0.66c-0.9-0.32-1.81-0.77-2.74-1.37c-0.93-0.6-1.74-1.36-2.43-2.27c-0.69-0.91-1.04-2.02-1.04-3.31
		c0-1.32,0.23-2.47,0.69-3.43c0.46-0.96,1.06-1.76,1.82-2.39c0.76-0.63,1.62-1.09,2.6-1.39c0.98-0.3,1.99-0.45,3.03-0.45
		c1.61,0,2.97,0.19,4.09,0.57c1.12,0.38,2.04,0.79,2.77,1.23c0.82,0.54,1.51,1.13,2.08,1.8l-3.97,3.97
		c-0.63-0.82-1.32-1.42-2.08-1.8c-0.76-0.38-1.56-0.57-2.41-0.57c-0.66,0-1.32,0.16-1.96,0.47c-0.65,0.32-0.97,0.82-0.97,1.51
		c0,0.38,0.14,0.7,0.43,0.97c0.28,0.27,0.63,0.49,1.04,0.66c0.41,0.17,0.84,0.32,1.3,0.45
		C189.42,114.35,189.84,114.46,190.21,114.56z"/>
</g>
</svg>
